<svg xmlns="http://www.w3.org/2000/svg" viewBox="0 0 355.69 105.55"><defs><style>.a{fill:#fff;}.b{fill:#878787;}.c{fill:#ee7326;}</style></defs><title>IMPC_logo</title><circle class="a" cx="15.03" cy="38.2" r="13.46"/><circle class="a" cx="51.76" cy="16.14" r="13.46"/><circle class="a" cx="88.03" cy="38.2" r="13.46"/><circle class="a" cx="51.79" cy="60.5" r="13.46"/><path class="b" d="M27.55,113.56v12.61H25.9V113.56Z" transform="translate(-25.87 -24.74)"/><path class="b" d="M30.52,119.56c0-1,0-1.7-.07-2.45h1.46l.09,1.5h0a3.36,3.36,0,0,1,3-1.69c1.26,0,3.2.75,3.2,3.86v5.39H36.59V121c0-1.46-.55-2.68-2.1-2.68A2.38,2.38,0,0,0,32.28,120a2.44,2.44,0,0,0-.11.76v5.45H30.52Z" transform="translate(-25.87 -24.74)"/><path class="b" d="M42.82,114.94v2.17h2.35v1.26H42.82v4.88c0,1.12.31,1.76,1.23,1.76a3.32,3.32,0,0,0,1-.11l.07,1.25a4.57,4.57,0,0,1-1.46.22,2.36,2.36,0,0,1-1.78-.69,3.52,3.52,0,0,1-.63-2.37v-4.94H39.8v-1.26h1.41v-1.68Z" transform="translate(-25.87 -24.74)"/><path class="b" d="M47.83,121.94a2.89,2.89,0,0,0,3.11,3.14,5.93,5.93,0,0,0,2.5-.46l.3,1.17a7.24,7.24,0,0,1-3,.58,4.21,4.21,0,0,1-4.45-4.58c0-2.73,1.61-4.87,4.25-4.87,3,0,3.74,2.59,3.74,4.25a3.79,3.79,0,0,1-.06.77Zm4.83-1.18a2.34,2.34,0,0,0-2.29-2.66,2.7,2.7,0,0,0-2.52,2.66Z" transform="translate(-25.87 -24.74)"/><path class="b" d="M56.29,119.94c0-1.07,0-2-.08-2.83h1.44l.08,1.8h.05a2.74,2.74,0,0,1,2.53-2,3.14,3.14,0,0,1,.45,0v1.56a2.42,2.42,0,0,0-.56,0A2.29,2.29,0,0,0,58,120.57a4.72,4.72,0,0,0-.06.77v4.83H56.29Z" transform="translate(-25.87 -24.74)"/><path class="b" d="M62.48,119.56c0-1,0-1.7-.08-2.45h1.46l.1,1.5h0a3.37,3.37,0,0,1,3-1.69c1.25,0,3.2.75,3.2,3.86v5.39H68.54V121c0-1.46-.54-2.68-2.09-2.68A2.38,2.38,0,0,0,64.24,120a2.18,2.18,0,0,0-.11.76v5.45H62.48Z" transform="translate(-25.87 -24.74)"/><path class="b" d="M79.22,124a14.3,14.3,0,0,0,.14,2.17H77.88L77.75,125h-.06a3.37,3.37,0,0,1-2.77,1.34,2.58,2.58,0,0,1-2.77-2.6c0-2.19,1.95-3.38,5.45-3.36v-.19a1.86,1.86,0,0,0-2.06-2.08,4.39,4.39,0,0,0-2.38.67l-.37-1.1a5.84,5.84,0,0,1,3-.79c2.77,0,3.44,1.89,3.44,3.69Zm-1.59-2.45c-1.79,0-3.83.28-3.83,2a1.44,1.44,0,0,0,1.53,1.57,2.29,2.29,0,0,0,2.23-1.52,1.66,1.66,0,0,0,.07-.52Z" transform="translate(-25.87 -24.74)"/><path class="b" d="M83.79,114.94v2.17h2.36v1.26H83.79v4.88c0,1.12.32,1.76,1.23,1.76a3.32,3.32,0,0,0,1-.11l.07,1.25a4.57,4.57,0,0,1-1.46.22,2.34,2.34,0,0,1-1.77-.69,3.52,3.52,0,0,1-.64-2.37v-4.94h-1.4v-1.26h1.4v-1.68Z" transform="translate(-25.87 -24.74)"/><path class="b" d="M89.83,114.57a1,1,0,0,1-2,0,1,1,0,0,1,1-1A1,1,0,0,1,89.83,114.57ZM88,126.17v-9.06h1.64v9.06Z" transform="translate(-25.87 -24.74)"/><path class="b" d="M100.57,121.57a4.43,4.43,0,0,1-4.51,4.8,4.31,4.31,0,0,1-4.34-4.66,4.43,4.43,0,0,1,4.49-4.79C98.81,116.92,100.57,118.81,100.57,121.57Zm-7.17.09c0,2,1.13,3.48,2.74,3.48s2.75-1.48,2.75-3.52c0-1.53-.77-3.46-2.72-3.46S93.4,120,93.4,121.66Z" transform="translate(-25.87 -24.74)"/><path class="b" d="M102.65,119.56c0-1,0-1.7-.08-2.45H104l.09,1.5h0a3.37,3.37,0,0,1,3-1.69c1.25,0,3.2.75,3.2,3.86v5.39h-1.65V121c0-1.46-.54-2.68-2.1-2.68a2.36,2.36,0,0,0-2.2,1.69,2.16,2.16,0,0,0-.12.76v5.45h-1.64Z" transform="translate(-25.87 -24.74)"/><path class="b" d="M119.39,124a15.82,15.82,0,0,0,.13,2.17h-1.47l-.14-1.14h0a3.38,3.38,0,0,1-2.77,1.34,2.58,2.58,0,0,1-2.77-2.6c0-2.19,2-3.38,5.44-3.36v-.19a1.85,1.85,0,0,0-2.05-2.08,4.39,4.39,0,0,0-2.38.67l-.37-1.1a5.84,5.84,0,0,1,3-.79c2.77,0,3.44,1.89,3.44,3.69Zm-1.59-2.45c-1.79,0-3.83.28-3.83,2a1.44,1.44,0,0,0,1.53,1.57,2.29,2.29,0,0,0,2.23-1.52,2,2,0,0,0,.07-.52Z" transform="translate(-25.87 -24.74)"/><path class="b" d="M122.05,112.88h1.64v13.29h-1.64Z" transform="translate(-25.87 -24.74)"/><path class="b" d="M141.11,120.63c-.09-1.76-.2-3.89-.2-5.45h0c-.45,1.46-1,3-1.59,4.79l-2.23,6.12h-1.23l-2.06-6c-.6-1.8-1.09-3.41-1.44-4.91h0c0,1.58-.13,3.67-.24,5.58l-.34,5.41h-1.55l.88-12.61h2.07l2.16,6.1c.52,1.55.93,2.93,1.27,4.24h0c.33-1.27.78-2.65,1.34-4.24l2.25-6.1h2.08l.78,12.61h-1.61Z" transform="translate(-25.87 -24.74)"/><path class="b" d="M153.78,121.57a4.43,4.43,0,0,1-4.51,4.8,4.31,4.31,0,0,1-4.34-4.66,4.43,4.43,0,0,1,4.49-4.79C152,116.92,153.78,118.81,153.78,121.57Zm-7.17.09c0,2,1.13,3.48,2.73,3.48s2.76-1.48,2.76-3.52c0-1.53-.77-3.46-2.72-3.46S146.61,120,146.61,121.66Z" transform="translate(-25.87 -24.74)"/><path class="b" d="M163.43,123.68c0,.95,0,1.78.08,2.49h-1.46l-.1-1.48h0a3.39,3.39,0,0,1-3,1.68c-1.42,0-3.12-.8-3.12-4v-5.3h1.65v5c0,1.72.54,2.9,2,2.9a2.37,2.37,0,0,0,2.17-1.52,2.29,2.29,0,0,0,.15-.84v-5.54h1.64Z" transform="translate(-25.87 -24.74)"/><path class="b" d="M165.94,124.5a4.64,4.64,0,0,0,2.19.64c1.18,0,1.74-.58,1.74-1.35s-.47-1.2-1.67-1.64c-1.64-.6-2.41-1.48-2.41-2.57,0-1.46,1.2-2.66,3.12-2.66a4.16,4.16,0,0,1,2.21.57l-.39,1.19a3.56,3.56,0,0,0-1.85-.54c-1,0-1.5.56-1.5,1.24s.52,1.08,1.7,1.55c1.56.58,2.38,1.36,2.38,2.71,0,1.61-1.25,2.73-3.37,2.73a5.18,5.18,0,0,1-2.54-.63Z" transform="translate(-25.87 -24.74)"/><path class="b" d="M174.49,121.94a2.89,2.89,0,0,0,3.11,3.14,5.93,5.93,0,0,0,2.5-.46l.3,1.17a7.24,7.24,0,0,1-3,.58,4.21,4.21,0,0,1-4.45-4.58c0-2.73,1.61-4.87,4.25-4.87,3,0,3.74,2.59,3.74,4.25a3.79,3.79,0,0,1-.06.77Zm4.83-1.18A2.34,2.34,0,0,0,177,118.1a2.7,2.7,0,0,0-2.52,2.66Z" transform="translate(-25.87 -24.74)"/><path class="b" d="M187,113.71a18.74,18.74,0,0,1,3.12-.25,5.21,5.21,0,0,1,3.54,1.05,3.47,3.47,0,0,1,1.1,2.64,3.68,3.68,0,0,1-1,2.69,5.24,5.24,0,0,1-3.85,1.39,5.77,5.77,0,0,1-1.31-.11v5H187Zm1.63,6.08a5.56,5.56,0,0,0,1.34.13c2,0,3.17-1,3.17-2.68s-1.2-2.49-3-2.49a6.37,6.37,0,0,0-1.53.14Z" transform="translate(-25.87 -24.74)"/><path class="b" d="M196.77,112.88h1.65v5.67h0a3.08,3.08,0,0,1,1.17-1.18,3.41,3.41,0,0,1,1.69-.45c1.21,0,3.16.75,3.16,3.86v5.39h-1.65V121c0-1.46-.54-2.68-2.09-2.68a2.39,2.39,0,0,0-2.21,1.63,2.17,2.17,0,0,0-.11.78v5.47h-1.65Z" transform="translate(-25.87 -24.74)"/><path class="b" d="M208.07,121.94a2.89,2.89,0,0,0,3.11,3.14,6,6,0,0,0,2.51-.46l.29,1.17a7.24,7.24,0,0,1-3,.58,4.22,4.22,0,0,1-4.45-4.58c0-2.73,1.61-4.87,4.25-4.87,3,0,3.74,2.59,3.74,4.25a3.79,3.79,0,0,1-.06.77Zm4.83-1.18a2.34,2.34,0,0,0-2.28-2.66,2.7,2.7,0,0,0-2.53,2.66Z" transform="translate(-25.87 -24.74)"/><path class="b" d="M216.53,119.56c0-1,0-1.7-.08-2.45h1.46l.1,1.5h0a3.37,3.37,0,0,1,3-1.69c1.25,0,3.2.75,3.2,3.86v5.39h-1.65V121c0-1.46-.54-2.68-2.09-2.68a2.38,2.38,0,0,0-2.21,1.69,2.18,2.18,0,0,0-.11.76v5.45h-1.65Z" transform="translate(-25.87 -24.74)"/><path class="b" d="M235.11,121.57a4.43,4.43,0,0,1-4.51,4.8,4.31,4.31,0,0,1-4.34-4.66,4.43,4.43,0,0,1,4.49-4.79C233.35,116.92,235.11,118.81,235.11,121.57Zm-7.17.09c0,2,1.12,3.48,2.73,3.48s2.75-1.48,2.75-3.52c0-1.53-.76-3.46-2.71-3.46S227.94,120,227.94,121.66Z" transform="translate(-25.87 -24.74)"/><path class="b" d="M239.17,114.94v2.17h2.35v1.26h-2.35v4.88c0,1.12.31,1.76,1.23,1.76a3.32,3.32,0,0,0,1-.11l.07,1.25a4.57,4.57,0,0,1-1.46.22,2.36,2.36,0,0,1-1.78-.69,3.52,3.52,0,0,1-.63-2.37v-4.94h-1.41v-1.26h1.41v-1.68Z" transform="translate(-25.87 -24.74)"/><path class="b" d="M244.14,117.11l2,5.35c.22.6.45,1.31.6,1.86h0c.17-.55.36-1.24.58-1.89l1.8-5.32h1.74l-2.47,6.46c-1.18,3.1-2,4.68-3.11,5.67a4.54,4.54,0,0,1-2,1l-.41-1.36a4.17,4.17,0,0,0,1.44-.81,5.23,5.23,0,0,0,1.39-1.83,1.33,1.33,0,0,0,.13-.39,1.14,1.14,0,0,0-.13-.43l-3.33-8.35Z" transform="translate(-25.87 -24.74)"/><path class="b" d="M252.36,120.07c0-1.16,0-2.1-.08-3h1.46l.09,1.56h0a3.53,3.53,0,0,1,3.22-1.75c2.21,0,3.85,1.86,3.85,4.59,0,3.25-2,4.86-4.13,4.86A3.17,3.17,0,0,1,254,125h0v4.92h-1.62Zm1.62,2.41a2.44,2.44,0,0,0,.08.68,2.54,2.54,0,0,0,2.47,1.92c1.74,0,2.75-1.42,2.75-3.5,0-1.79-1-3.35-2.69-3.35a2.59,2.59,0,0,0-2.49,2,2.41,2.41,0,0,0-.12.65Z" transform="translate(-25.87 -24.74)"/><path class="b" d="M264.84,114.57a1,1,0,0,1-1,1,1,1,0,0,1-1-1,1,1,0,1,1,2,0ZM263,126.17v-9.06h1.65v9.06Z" transform="translate(-25.87 -24.74)"/><path class="b" d="M267.38,119.56c0-1,0-1.7-.08-2.45h1.46l.1,1.5h0a3.37,3.37,0,0,1,3-1.69c1.25,0,3.2.75,3.2,3.86v5.39h-1.65V121c0-1.46-.54-2.68-2.09-2.68a2.38,2.38,0,0,0-2.21,1.69,2.18,2.18,0,0,0-.11.76v5.45h-1.65Z" transform="translate(-25.87 -24.74)"/><path class="b" d="M285.51,124.84c0,2.1-.43,3.35-1.29,4.15a5,5,0,0,1-3.31,1.09,5.83,5.83,0,0,1-3-.75l.42-1.27a4.91,4.91,0,0,0,2.65.73c1.69,0,2.92-.88,2.92-3.18v-1h0a3.19,3.19,0,0,1-2.88,1.51c-2.24,0-3.85-1.91-3.85-4.42,0-3.06,2-4.79,4.1-4.79a3,3,0,0,1,2.82,1.56h0l.05-1.37h1.46c-.05.64-.07,1.39-.07,2.47Zm-1.65-4.15a2.28,2.28,0,0,0-.09-.73,2.35,2.35,0,0,0-2.3-1.76c-1.57,0-2.7,1.33-2.7,3.42,0,1.78.92,3.26,2.68,3.26a2.37,2.37,0,0,0,2.28-1.69,2.68,2.68,0,0,0,.13-.88Z" transform="translate(-25.87 -24.74)"/><path class="b" d="M301,125.78a8.21,8.21,0,0,1-3.33.59c-3.56,0-6.21-2.24-6.21-6.4a6.26,6.26,0,0,1,6.58-6.62,6.89,6.89,0,0,1,3,.56l-.41,1.33a5.77,5.77,0,0,0-2.52-.52c-3,0-4.92,1.89-4.92,5.2,0,3.1,1.77,5.07,4.82,5.07a6.73,6.73,0,0,0,2.68-.52Z" transform="translate(-25.87 -24.74)"/><path class="b" d="M311,121.57a4.43,4.43,0,0,1-4.51,4.8,4.31,4.31,0,0,1-4.34-4.66,4.43,4.43,0,0,1,4.49-4.79C309.27,116.92,311,118.81,311,121.57Zm-7.17.09c0,2,1.12,3.48,2.73,3.48s2.75-1.48,2.75-3.52c0-1.53-.76-3.46-2.71-3.46S303.86,120,303.86,121.66Z" transform="translate(-25.87 -24.74)"/><path class="b" d="M313.1,119.56c0-1,0-1.7-.07-2.45h1.46l.09,1.5h0a3.36,3.36,0,0,1,3-1.69c1.26,0,3.2.75,3.2,3.86v5.39h-1.64V121c0-1.46-.55-2.68-2.1-2.68a2.38,2.38,0,0,0-2.21,1.69,2.44,2.44,0,0,0-.11.76v5.45H313.1Z" transform="translate(-25.87 -24.74)"/><path class="b" d="M323.26,124.5a4.68,4.68,0,0,0,2.19.64c1.18,0,1.74-.58,1.74-1.35s-.47-1.2-1.66-1.64c-1.65-.6-2.42-1.48-2.42-2.57,0-1.46,1.2-2.66,3.13-2.66a4.19,4.19,0,0,1,2.21.57l-.4,1.19a3.53,3.53,0,0,0-1.85-.54c-1,0-1.5.56-1.5,1.24s.53,1.08,1.71,1.55c1.55.58,2.37,1.36,2.37,2.71,0,1.61-1.25,2.73-3.37,2.73a5.21,5.21,0,0,1-2.54-.63Z" transform="translate(-25.87 -24.74)"/><path class="b" d="M339.09,121.57a4.43,4.43,0,0,1-4.51,4.8,4.31,4.31,0,0,1-4.34-4.66,4.43,4.43,0,0,1,4.49-4.79C337.33,116.92,339.09,118.81,339.09,121.57Zm-7.16.09c0,2,1.12,3.48,2.73,3.48s2.75-1.48,2.75-3.52c0-1.53-.77-3.46-2.72-3.46S331.93,120,331.93,121.66Z" transform="translate(-25.87 -24.74)"/><path class="b" d="M341.17,119.94c0-1.07,0-2-.08-2.83h1.44l.08,1.8h.05a2.76,2.76,0,0,1,2.53-2,3.14,3.14,0,0,1,.45,0v1.56a2.42,2.42,0,0,0-.56,0,2.29,2.29,0,0,0-2.21,2.09,4.72,4.72,0,0,0-.06.77v4.83h-1.64Z" transform="translate(-25.87 -24.74)"/><path class="b" d="M349.72,114.94v2.17h2.35v1.26h-2.35v4.88c0,1.12.32,1.76,1.23,1.76a3.32,3.32,0,0,0,1-.11l.07,1.25a4.57,4.57,0,0,1-1.46.22,2.36,2.36,0,0,1-1.78-.69,3.57,3.57,0,0,1-.63-2.37v-4.94H346.7v-1.26h1.41v-1.68Z" transform="translate(-25.87 -24.74)"/><path class="b" d="M355.76,114.57a1,1,0,0,1-1.05,1,1,1,0,0,1-1-1,1,1,0,0,1,1-1A1,1,0,0,1,355.76,114.57Zm-1.83,11.6v-9.06h1.64v9.06Z" transform="translate(-25.87 -24.74)"/><path class="b" d="M365.88,123.68c0,.95,0,1.78.08,2.49H364.5l-.1-1.48h0a3.39,3.39,0,0,1-3,1.68c-1.42,0-3.12-.8-3.12-4v-5.3h1.65v5c0,1.72.54,2.9,2,2.9a2.37,2.37,0,0,0,2.17-1.52,2.29,2.29,0,0,0,.15-.84v-5.54h1.64Z" transform="translate(-25.87 -24.74)"/><path class="b" d="M368.61,119.56c0-1,0-1.7-.07-2.45H370l.07,1.48h.06a3.14,3.14,0,0,1,2.86-1.67,2.68,2.68,0,0,1,2.55,1.82h0a3.78,3.78,0,0,1,1-1.18,3.08,3.08,0,0,1,2-.64c1.21,0,3,.79,3,3.93v5.32H380v-5.11c0-1.76-.65-2.79-2-2.79a2.16,2.16,0,0,0-2,1.48,2.94,2.94,0,0,0-.13.82v5.6h-1.61v-5.43c0-1.44-.63-2.47-1.89-2.47a2.29,2.29,0,0,0-2,1.65,2.24,2.24,0,0,0-.13.8v5.45h-1.61Z" transform="translate(-25.87 -24.74)"/><path class="b" d="M165.67,26v74.23H156V26Z" transform="translate(-25.87 -24.74)"/><path class="b" d="M245,67.58c-.55-10.35-1.21-22.91-1.21-32h-.22c-2.64,8.59-5.62,17.95-9.36,28.19l-13.11,36H213.8L201.69,64.39c-3.53-10.58-6.39-20-8.48-28.86H193c-.22,9.25-.77,21.59-1.43,32.82l-2,31.83h-9.14L185.61,26h12.22l12.67,35.9c3.08,9.14,5.51,17.29,7.49,25h.22c2-7.49,4.62-15.64,7.93-25L239.36,26h12.22l4.63,74.23h-9.47Z" transform="translate(-25.87 -24.74)"/><path class="b" d="M271,26.83a111.09,111.09,0,0,1,18.39-1.43c9.47,0,16.41,2.2,20.81,6.16,4,3.53,6.5,8.93,6.5,15.53s-2,12-5.72,15.86c-5.18,5.4-13.33,8.15-22.69,8.15a33,33,0,0,1-7.71-.66v29.74H271Zm9.58,35.79a32.13,32.13,0,0,0,7.93.77c11.56,0,18.61-5.72,18.61-15.75S300,33,289.58,33a40.2,40.2,0,0,0-9,.77Z" transform="translate(-25.87 -24.74)"/><path class="b" d="M381.32,97.87c-3.41,1.76-10.57,3.52-19.6,3.52-20.93,0-36.57-13.21-36.57-37.67,0-23.34,15.75-39,38.77-39,9.14,0,15.09,2,17.62,3.3l-2.42,7.82a34,34,0,0,0-14.87-3.08c-17.4,0-29,11.12-29,30.61,0,18.29,10.46,29.85,28.41,29.85,5.95,0,11.9-1.21,15.75-3.08Z" transform="translate(-25.87 -24.74)"/><path class="c" d="M85,45.65a8.65,8.65,0,0,1-4.3,3.44,8.68,8.68,0,0,0,2-3.44Z" transform="translate(-25.87 -24.74)"/><path class="c" d="M114.59,47.78a15.23,15.23,0,0,0-3.6.43h0A15.29,15.29,0,0,1,93.09,39,15.26,15.26,0,0,0,78,25.93h-.25A15.25,15.25,0,0,0,62.65,39a15.27,15.27,0,0,1-14.2,9.66,15,15,0,0,1-3.7-.45h0a15.28,15.28,0,1,0,0,29.69,15.62,15.62,0,0,1,3.7-.45,15.26,15.26,0,0,1,14.21,9.69,15.27,15.27,0,0,0,15.09,13H78a15.27,15.27,0,0,0,15.1-13,15.26,15.26,0,0,1,14.2-9.69,15.49,15.49,0,0,1,3.7.45,15.27,15.27,0,1,0,3.6-30.12ZM77.89,28.3A12.71,12.71,0,1,1,65.2,41,12.72,12.72,0,0,1,77.89,28.3ZM41.13,75.76a12.71,12.71,0,1,1,12.7-12.71A12.72,12.72,0,0,1,41.13,75.76ZM77.89,98.07A12.71,12.71,0,1,1,90.6,85.36,12.71,12.71,0,0,1,77.89,98.07ZM86,70.48l-.23,0H70l-.25,0a15.25,15.25,0,0,1-12.19-7.43,15.27,15.27,0,0,1,12.19-7.42l.24,0H85.75l.24,0a15.28,15.28,0,0,1,12.19,7.42A15.27,15.27,0,0,1,86,70.48Zm28.19,5.28a12.71,12.71,0,1,1,12.71-12.71A12.72,12.72,0,0,1,114.17,75.76Z" transform="translate(-25.87 -24.74)"/><path class="c" d="M40.86,57.58c.14-.39-.07-.64-.48-1a1,1,0,0,0-1.36.17l-.37.52a4.14,4.14,0,0,0-1.92-.48,4.7,4.7,0,0,0-.19-1c-.11-.17-.49,0-.78.95a.75.75,0,0,1-.42.44,16.66,16.66,0,0,0-2.07,1.44c-.89.69-1.14.54-1.09,1.15s.27,1,1.13,1.43.89.55,1.5.54a2.7,2.7,0,0,1,1.54.38c.11.18.83,1.17.81,1.54a2.46,2.46,0,0,1-.1,1c-.12.18-.2.32-.2,1a.83.83,0,0,1-.74.93,2.49,2.49,0,0,0-.76.18c-.15.1-.57.22-.31.36s.29.31.42.27a4.47,4.47,0,0,1,.57-.07s-.12.49.08.49a12.82,12.82,0,0,0,2.2-.14,6.13,6.13,0,0,0,.93-.66,6.22,6.22,0,0,1,1.49-1.08c.26,0,.79.76.79.76s-.5.48-.23.76a4.89,4.89,0,0,0,1.27.64s-1.91.25-2.28.35-.22.66.31.6a28.6,28.6,0,0,0,4.28-.59C46,68.08,46,67.76,46,67.6a2.49,2.49,0,0,0,1.11-.13c.33-.21,1.08-.65,1.14-.58a7.88,7.88,0,0,0,3.14,1.21,3.53,3.53,0,0,0,.42,0,11.79,11.79,0,1,1,1.16-5.09,11.65,11.65,0,0,1-.79,4.23,11.18,11.18,0,0,1-1.4-.24,3.18,3.18,0,0,1-2-1.37,3.38,3.38,0,0,1-.59-2c-.12-1.49-2.39-7.06-7.53-5.37l-.33.14A4.13,4.13,0,0,0,40.86,57.58Z" transform="translate(-25.87 -24.74)"/><path class="c" d="M114.17,51.25A11.81,11.81,0,1,0,126,63.05,11.81,11.81,0,0,0,114.17,51.25Zm3.58,8.86a2.43,2.43,0,0,1,0,.25,1.8,1.8,0,0,1-.08.53.78.78,0,0,0-.09.21s-.08.13-.13.21-.07,0-.09.12a.15.15,0,0,1-.06.09s0,0,0,.14,0,.13-.08.26-.07.28-.09.3a.08.08,0,0,1-.11,0s0,0-.06.08-.07.12-.08.16a.66.66,0,0,1-.06.22,2,2,0,0,0-.09.3,1.59,1.59,0,0,0-.08.18,1,1,0,0,1-.07.2c-.06.08-.09.11-.12.1s0,0,0,.06a.36.36,0,0,0,0,.11,1.74,1.74,0,0,1,0,.23c0,.06,0,.13,0,.17s0,0,0,.12a1.18,1.18,0,0,1,.08.31,2.53,2.53,0,0,1,0,.29c0,.09,0,.48,0,.56s0,.13,0,.23a2.21,2.21,0,0,1-.07.32,1.72,1.72,0,0,1,0,.18.25.25,0,0,0,0,.12c0,.06,0,.27,0,.34a.82.82,0,0,0,0,.14s0,0,0,.09a2.23,2.23,0,0,1,0,.27.69.69,0,0,0,0,.22,1.88,1.88,0,0,1,0,.31v.15s0,0,0,.06,0,0,0,.09a.42.42,0,0,1,0,.12v.13s0,0,0,.08v.11a.08.08,0,0,0,0,.06.16.16,0,0,1,0,.12.32.32,0,0,0,0,.14,2.42,2.42,0,0,0,0,.25,1,1,0,0,1,0,.17,1.64,1.64,0,0,0,0,.23c0,.05,0,.12,0,.16s0,.16,0,.22l0,.22a2.24,2.24,0,0,1,0,.24v.13a1.49,1.49,0,0,1,0,.19c0,.07,0,.2,0,.25a2.51,2.51,0,0,1,0,.31l0,.14v.08s0,.18,0,.24v.17s0,.07,0,.1a.38.38,0,0,0,0,.12.14.14,0,0,0,.09.08.22.22,0,0,1,.09.16c0,.07,0,.09,0,.12v.09s0,.11,0,.11,0,0,0,.06,0,0,0,.08.05.09.09.12.16.14.17.22,0,.12,0,.18a.19.19,0,0,1,0,.08s0,0,0,.09,0,.09,0,.08-.31,0-.42,0a2.05,2.05,0,0,1-.49,0c-.14,0-.2-.09-.21-.13s0-.07-.07-.1l-.26-.08a1.47,1.47,0,0,1-.17-.07s-.06,0,0-.11,0-.06,0-.07.06,0,0-.07a.27.27,0,0,1-.08-.17.72.72,0,0,0,0-.17s0,0,0,0-.08,0-.09-.06,0,0,0-.08a.38.38,0,0,1,0-.15.21.21,0,0,0,0-.15,1.74,1.74,0,0,1-.11-.25,1.31,1.31,0,0,1,0-.17.47.47,0,0,0,0-.09s0-.08,0-.12a.53.53,0,0,1,0-.19V70.8a.54.54,0,0,0,0-.18v-.3a.82.82,0,0,0,0-.27,2.36,2.36,0,0,0,0-.28.91.91,0,0,1,0-.17.15.15,0,0,0,0-.06s0-.21,0-.25,0-.22,0-.27a1.77,1.77,0,0,1,0-.23,1.22,1.22,0,0,0,0-.27,3.61,3.61,0,0,1-.08-.38c0-.09,0-.2,0-.28a1.34,1.34,0,0,0,0-.21c0-.05-.1-.43-.1-.46s-.06-.36-.07-.41-.07-.34-.07-.38-.07-.39-.09-.42-.06-.36-.07-.4,0-.21-.08-.3-.06-.26-.08-.31-.06-.25-.08-.31,0-.26-.06-.3,0-.13,0-.13,0,0,0,0a.32.32,0,0,1-.08.09s0,0-.06,0a1.09,1.09,0,0,0,0,.22,1.62,1.62,0,0,0,0,.18s0,0,0,.08a.31.31,0,0,1,0,.1V65c0,.07,0,.14,0,.2s0,.22-.06.28,0,.14,0,.23l-.06.26-.09.32a.32.32,0,0,0,0,.14.12.12,0,0,1,0,.09.35.35,0,0,0,0,.14,1,1,0,0,1,0,.2,1.4,1.4,0,0,0,0,.23c0,.11,0,.27,0,.36s0,.23,0,.29a.61.61,0,0,0,0,.22.46.46,0,0,1,0,.1s0,.1,0,.19,0,.32,0,.42a3.15,3.15,0,0,0,0,.41,2.44,2.44,0,0,0,0,.27.19.19,0,0,1,0,.11c0,.06,0,.07,0,.1a.31.31,0,0,0,0,.1V70a.37.37,0,0,0,0,.15c0,.06,0,.3,0,.38s0,.17,0,.2a.48.48,0,0,0,0,.18,3.43,3.43,0,0,1,0,.39,2.42,2.42,0,0,1,0,.27c0,.08,0,.25,0,.29a1.22,1.22,0,0,1,0,.17,1.88,1.88,0,0,1,0,.2.3.3,0,0,1,0,.09.11.11,0,0,0,0,.06s-.06.07-.1,0-.1-.06-.09,0a.54.54,0,0,1,0,.11.14.14,0,0,1,0,.11s0,0,0,.06a.69.69,0,0,1,0,.13s0,.1-.07.12l-.27.07s-.18,0-.18.09-.08.14-.31.16a2.21,2.21,0,0,1-.56,0l-.27,0s0,0,0-.06a.34.34,0,0,1,0-.12s0,0,0-.06a.35.35,0,0,1,.09-.37l.16-.11.07-.09,0,0s-.08,0-.1,0a.17.17,0,0,1,0-.1s0-.07,0-.09a.1.1,0,0,1,.08,0c.06,0,.06,0,0,0a.83.83,0,0,1,0-.13.3.3,0,0,1,0-.12c0-.05,0-.09,0-.13a.17.17,0,0,1,.13-.1c.06,0,.07,0,.06,0s0-.19,0-.22a2.11,2.11,0,0,1,0-.25.57.57,0,0,0,0-.13s0-.22,0-.27,0-.31,0-.32V70c0-.08,0-.39,0-.45a1.32,1.32,0,0,0,0-.2.49.49,0,0,1,0-.11s0-.21,0-.28a.81.81,0,0,1,0-.27.24.24,0,0,0,0-.08.21.21,0,0,0,0-.08.16.16,0,0,0,0-.09s0-.09,0-.14v-.12a.78.78,0,0,0,0-.24,1.34,1.34,0,0,0,0-.21,1.27,1.27,0,0,1,0-.2v-.33a1.94,1.94,0,0,0,0-.24,1,1,0,0,1,0-.27c0-.08,0-.14,0-.2a2.91,2.91,0,0,1,0-.31,2.07,2.07,0,0,0,0-.36c0-.07,0-.37,0-.41V65.1s0-.37,0-.42,0-.39,0-.47v-.28a.6.6,0,0,0,0-.12,1.39,1.39,0,0,1,0-.17s0,0-.07-.08a2,2,0,0,1-.18-.22,1.11,1.11,0,0,1-.07-.16s0-.09-.08-.21a2,2,0,0,0-.1-.3,1.29,1.29,0,0,1-.06-.12s-.08,0-.1,0,0,0,0,0a1.14,1.14,0,0,1-.09-.19c0-.07,0-.09-.08-.17A.89.89,0,0,0,111,62c0-.06,0-.06,0-.09s0,0,0-.07l-.06-.07a1.13,1.13,0,0,1-.15-.23,1.89,1.89,0,0,1-.06-.21s0,0,0,0a1.37,1.37,0,0,1,0-.19,1.75,1.75,0,0,1,0-.23c0-.06,0,0,0-.1a.26.26,0,0,1,0-.1.19.19,0,0,0,0-.07.15.15,0,0,0,0-.07,1.06,1.06,0,0,1-.06-.22c0-.1,0-.2,0-.26s0-.19,0-.22,0-.16,0-.19,0-.18,0-.24a3.92,3.92,0,0,1,.1-.43,3.88,3.88,0,0,0,.14-.45s.19-.55.22-.66.16-.51.19-.66a2.13,2.13,0,0,1,.32-.64,1.18,1.18,0,0,1,.22-.21c.06,0,.14-.09.14-.11s0,0,0,0l.08,0s0,0,.11,0l.27-.06.29-.06.15-.05.11,0s.06,0,.1-.06,0,0,.09-.09l.11-.16s.09-.06.08-.1a1.12,1.12,0,0,0,0-.2l-.06-.11s0-.17-.06-.2l0,0a1.42,1.42,0,0,1-.13-.12s0,0,0,0a.24.24,0,0,1,0-.14c0-.07,0-.06,0-.08a.08.08,0,0,0,0,0,.11.11,0,0,1,0-.07.38.38,0,0,1,0-.1s0-.05,0-.05.06,0,0,0,0,0,0-.06a.39.39,0,0,1,0-.09s0,0,0-.05,0-.08,0-.1,0-.09,0,0,0,0,0,0V53.8s0-.07,0,0,0,0,0,0,0-.08,0,0,0,0,0,0,0-.08,0-.06,0,0,0,0,0-.07,0-.09,0-.06,0,0,0,0,0,0,0-.09,0-.08l.05-.07s.07-.06,0-.06,0,0,0,0,0,0,0-.12,0-.11.07-.12,0,0,0,0h0l0,0s0,0,0,0l0,0s0,0,0,0h0l.08-.06h0l0,0,.07,0a.44.44,0,0,0,.11-.08.18.18,0,0,1,.1,0,.8.8,0,0,0,.15,0s0,0,.07,0,0,0,0,0l.07-.06s0,0,0,0l.07,0s0,0,0,0,.07,0,.09,0,0,0,0,0,0,0,.09.05H114l.14,0s0,0,.08,0h0l.07,0,0,0h0a.48.48,0,0,1,.11.08l0,0a.55.55,0,0,0,.1.08s0,0,0,0,0,0,0,0h0s0,0,.06.09,0,0,0,0,.06.1.07.14a.2.2,0,0,1,0,.09s0,0,0,0a.26.26,0,0,0,0,.08s0,0,0,0,0,0,0,.05,0,0,0,0,0,.07,0,.09h0s0,0,0,.06,0,0,0,0,0,.06,0,.08,0,0,0,0a.1.1,0,0,0,0,.08s0,0,0,0a.77.77,0,0,1,0,.1s0,0,0,0a.05.05,0,0,1,.08,0,.2.2,0,0,1,.06.09v.1a.33.33,0,0,1,0,.1.32.32,0,0,0,0,.1.18.18,0,0,1,0,.09l0,.1a1,1,0,0,1-.1.11s0,0-.06,0,0,0,0,0,0,.11,0,.17a.62.62,0,0,0,0,.21.83.83,0,0,0,0,.28l.11,0s.09.07.1.1a.15.15,0,0,0,0,.08l.11.09.07.06.12,0,.13,0a.17.17,0,0,0,.1,0l.15,0,.12,0,.09,0h.11l0,0s.1,0,.14,0a.53.53,0,0,1,.11,0,.66.66,0,0,0,.11,0s.1,0,.11.06a1.06,1.06,0,0,0,.11.09l0,0s.07.06.08.08l.08.13.09.2.09.2.06.14s.25.67.27.76.15.45.19.61.11.38.15.53.12.33.14.42.09.28.09.38A1.49,1.49,0,0,0,117.75,60.11Z" transform="translate(-25.87 -24.74)"/><path class="c" d="M112.3,61.09l-.09.16,0,.13s0,.1,0,.15a.19.19,0,0,1,0,.1s0,.07,0,.13a2,2,0,0,1,0,.23.65.65,0,0,1,0,.19s0,.08,0,.09-.06,0-.07,0l0-.1a.55.55,0,0,0-.08-.19,1.79,1.79,0,0,0-.09-.19.21.21,0,0,0,0-.11s0,0,0,0l.09-.09s.06,0,0-.09a.48.48,0,0,0,0-.18.2.2,0,0,0-.06-.09.18.18,0,0,1,0-.13.49.49,0,0,1,0-.14.58.58,0,0,0,0-.21.25.25,0,0,0-.06-.13.44.44,0,0,0-.08-.11s-.08-.06-.07-.09,0-.1,0-.14a1.31,1.31,0,0,0,0-.15.84.84,0,0,1,0-.18.73.73,0,0,0,0-.16c0-.08,0-.08,0-.11a.28.28,0,0,0,0-.09s0-.09,0-.09,0,0,0-.07,0-.11.06-.16a.12.12,0,0,1,0-.09.24.24,0,0,0,.09-.06l0-.06s0-.06.06-.08,0-.06,0-.08a.41.41,0,0,0,.08-.12c0-.06,0-.08,0-.11a.2.2,0,0,1,0-.08l0,0s0,0,0,0,0,0,0,0a.08.08,0,0,0,0,0s0,.07,0,.12a1.83,1.83,0,0,0,0,.21.88.88,0,0,1,0,.16v.08s0,.23,0,.32,0,.22,0,.29a2.11,2.11,0,0,0,0,.25l0,.3a1.47,1.47,0,0,0,0,.27c0,.07.06.17.08.23A.22.22,0,0,1,112.3,61.09Z" transform="translate(-25.87 -24.74)"/><path class="c" d="M116.52,60.66a.33.33,0,0,0,0,.25c0,.08.1.13.08.19a.59.59,0,0,1,0,.13.06.06,0,0,0,0,.08s0,0,0,.08a.26.26,0,0,0,0,.1.25.25,0,0,0,0,.1,2,2,0,0,0-.09.22,1,1,0,0,0,0,.14s0,0,0,.06a.23.23,0,0,1-.1,0s-.07,0-.07,0v-.26a1.06,1.06,0,0,0,0-.25l0-.1s0,0,0-.09a2,2,0,0,0,0-.36v-.3s0-.28,0-.34a2.57,2.57,0,0,0,0-.39,3,3,0,0,0,0-.41c0-.06-.06-.48-.07-.5s0-.28,0-.31a.25.25,0,0,0,0-.1s0,0,0-.06,0,0,0,0,.06-.06.07-.07l0,0s0,0,0,0a.25.25,0,0,0,0,.07.73.73,0,0,0,.09.18.55.55,0,0,0,.09.14s.09.09.08.13,0,.08,0,.11a.9.9,0,0,0,0,.13,1.05,1.05,0,0,1,0,.12s0,.12,0,.17a1.1,1.1,0,0,0,0,.28,1.7,1.7,0,0,0,0,.28.53.53,0,0,0,.06.21c0,.06,0,.13.08.16s.11.08.06.11A.21.21,0,0,0,116.52,60.66Z" transform="translate(-25.87 -24.74)"/><path class="c" d="M116.52,60.66a.33.33,0,0,0,0,.25c0,.08.1.13.08.19a.59.59,0,0,1,0,.13.06.06,0,0,0,0,.08s0,0,0,.08a.26.26,0,0,0,0,.1.25.25,0,0,0,0,.1,2,2,0,0,0-.09.22,1,1,0,0,0,0,.14s0,0,0,.06a.23.23,0,0,1-.1,0s-.07,0-.07,0v-.26a1.06,1.06,0,0,0,0-.25l0-.1s0,0,0-.09a2,2,0,0,0,0-.36v-.3s0-.28,0-.34a2.57,2.57,0,0,0,0-.39,3,3,0,0,0,0-.41c0-.06-.06-.48-.07-.5s0-.28,0-.31a.25.25,0,0,0,0-.1s0,0,0-.06,0,0,0,0,.06-.06.07-.07l0,0s0,0,0,0a.25.25,0,0,0,0,.07.73.73,0,0,0,.09.18.55.55,0,0,0,.09.14s.09.09.08.13,0,.08,0,.11a.9.9,0,0,0,0,.13,1.05,1.05,0,0,1,0,.12s0,.12,0,.17a1.1,1.1,0,0,0,0,.28,1.7,1.7,0,0,0,0,.28.53.53,0,0,0,.06.21c0,.06,0,.13.08.16s.11.08.06.11A.21.21,0,0,0,116.52,60.66Z" transform="translate(-25.87 -24.74)"/><path class="c" d="M112.3,61.09l-.09.16,0,.13s0,.1,0,.15a.19.19,0,0,1,0,.1s0,.07,0,.13a2,2,0,0,1,0,.23.65.65,0,0,1,0,.19s0,.08,0,.09-.06,0-.07,0l0-.1a.55.55,0,0,0-.08-.19,1.79,1.79,0,0,0-.09-.19.21.21,0,0,0,0-.11s0,0,0,0l.09-.09s.06,0,0-.09a.48.48,0,0,0,0-.18.2.2,0,0,0-.06-.09.18.18,0,0,1,0-.13.49.49,0,0,1,0-.14.58.58,0,0,0,0-.21.25.25,0,0,0-.06-.13.44.44,0,0,0-.08-.11s-.08-.06-.07-.09,0-.1,0-.14a1.31,1.31,0,0,0,0-.15.84.84,0,0,1,0-.18.73.73,0,0,0,0-.16c0-.08,0-.08,0-.11a.28.28,0,0,0,0-.09s0-.09,0-.09,0,0,0-.07,0-.11.06-.16a.12.12,0,0,1,0-.09.24.24,0,0,0,.09-.06l0-.06s0-.06.06-.08,0-.06,0-.08a.41.41,0,0,0,.08-.12c0-.06,0-.08,0-.11a.2.2,0,0,1,0-.08l0,0s0,0,0,0,0,0,0,0a.08.08,0,0,0,0,0s0,.07,0,.12a1.83,1.83,0,0,0,0,.21.88.88,0,0,1,0,.16v.08s0,.23,0,.32,0,.22,0,.29a2.11,2.11,0,0,0,0,.25l0,.3a1.47,1.47,0,0,0,0,.27c0,.07.06.17.08.23A.22.22,0,0,1,112.3,61.09Z" transform="translate(-25.87 -24.74)"/><path class="c" d="M77.89,29.2A11.81,11.81,0,1,0,89.7,41,11.81,11.81,0,0,0,77.89,29.2Zm.29,21.15-.29,0h-.22l-.29,0a9.37,9.37,0,0,1-7.74-14l0-.06a9.37,9.37,0,0,1,7.71-4.65l.29,0h.22l.29,0a9.36,9.36,0,0,1,7.7,4.63l.06.1A9.28,9.28,0,0,1,87.17,41,9.38,9.38,0,0,1,78.18,50.35Z" transform="translate(-25.87 -24.74)"/><path class="c" d="M77.4,32.38V36.1H73.66C74.49,34,75.85,32.53,77.4,32.38Z" transform="translate(-25.87 -24.74)"/><path class="c" d="M77.4,36.86V40.6H72.81a14,14,0,0,1,.58-3.74Z" transform="translate(-25.87 -24.74)"/><path class="c" d="M86.39,40.6H83.51a14.29,14.29,0,0,0-.57-3.74h2.41A8.47,8.47,0,0,1,86.39,40.6Z" transform="translate(-25.87 -24.74)"/><path class="c" d="M84.88,36.1H82.7a8.65,8.65,0,0,0-2-3.22A8.65,8.65,0,0,1,84.88,36.1Z" transform="translate(-25.87 -24.74)"/><path class="c" d="M72.62,36.86a14.29,14.29,0,0,0-.57,3.74H69.18a8.46,8.46,0,0,1,1-3.74Z" transform="translate(-25.87 -24.74)"/><path class="c" d="M72.56,44.89H70.11a8.4,8.4,0,0,1-.93-3.52h2.87A14,14,0,0,0,72.56,44.89Z" transform="translate(-25.87 -24.74)"/><path class="c" d="M74.84,49.09a8.54,8.54,0,0,1-4.29-3.44h2.24A8.75,8.75,0,0,0,74.84,49.09Z" transform="translate(-25.87 -24.74)"/><path class="c" d="M77.4,45.65v3.94c-1.6-.15-3-1.69-3.82-3.94Z" transform="translate(-25.87 -24.74)"/><path class="c" d="M77.4,41.37v3.52H73.33a13.89,13.89,0,0,1-.52-3.52Z" transform="translate(-25.87 -24.74)"/><path class="c" d="M82.75,41.37a13.45,13.45,0,0,1-.53,3.52H78.16V41.37Z" transform="translate(-25.87 -24.74)"/><path class="c" d="M82,45.65c-.82,2.25-2.22,3.79-3.82,3.94V45.65Z" transform="translate(-25.87 -24.74)"/><path class="c" d="M86.39,41.37a8.4,8.4,0,0,1-.93,3.52H83a14,14,0,0,0,.51-3.52Z" transform="translate(-25.87 -24.74)"/><path class="c" d="M82.75,40.6H78.16V36.86h4A13.63,13.63,0,0,1,82.75,40.6Z" transform="translate(-25.87 -24.74)"/><path class="c" d="M81.9,36.1H78.16V32.38C79.71,32.53,81.07,34,81.9,36.1Z" transform="translate(-25.87 -24.74)"/><path class="c" d="M74.82,32.89a8.71,8.71,0,0,0-2,3.21H70.68A8.67,8.67,0,0,1,74.82,32.89Z" transform="translate(-25.87 -24.74)"/><path class="c" d="M77.89,73.55A11.81,11.81,0,1,0,89.7,85.36,11.82,11.82,0,0,0,77.89,73.55Zm5.34,16.83a3,3,0,0,1-2.11.88A2.94,2.94,0,0,1,79,90.38l-6-6a3,3,0,0,1,0-4.22,3.06,3.06,0,0,1,4.23,0l6,6a3,3,0,0,1,0,4.21Z" transform="translate(-25.87 -24.74)"/><path class="c" d="M76.77,80.69a2.29,2.29,0,0,0-3.24,0,2.29,2.29,0,0,0,0,3.24l2.94,2.94,3.24-3.24Zm-.3.71h0a1.88,1.88,0,0,0-2.22-.31,2.38,2.38,0,0,0-.4.31l-.35-.35a2.46,2.46,0,0,1,.51-.39,2.36,2.36,0,0,1,2.81.39l.12.12h0l1,1-.35.35C76.9,81.86,76.6,81.56,76.47,81.4Z" transform="translate(-25.87 -24.74)"/></svg>