<?xml version="1.0" encoding="utf-8"?>
<!-- Generator: Adobe Illustrator 21.1.0, SVG Export Plug-In . SVG Version: 6.00 Build 0)  -->
<svg version="1.1" id="Layer_1" xmlns="http://www.w3.org/2000/svg" xmlns:xlink="http://www.w3.org/1999/xlink" x="0px" y="0px"
	 viewBox="0 0 524.9 201.8" style="enable-background:new 0 0 524.9 201.8;" xml:space="preserve">
<style type="text/css">
	.st0{fill:#04A74D;}
</style>
<g>
	<g>
		<path d="M0,13.1h17.5v115.4h28.7v14.8H0V13.1z"/>
		<path d="M40.9,56h18.2L72,116.9L87,56h16.4L67.7,179.1h-17l13.4-42.8L40.9,56z"/>
		<path d="M112,56h16.1v10.8c4.4-8.2,10.3-12.2,17.7-12.2c8,0,13.5,4.1,16.4,12.2c4.3-8.2,10.3-12.2,18.2-12.2
			c6.1,0,10.8,1.6,14,4.8c3.2,3.2,4.8,8,4.8,14.3v69.6h-16.2V85.9c0-6.6-0.6-11-1.9-13.2c-1.2-2.3-3.5-3.5-6.9-3.5
			c-3.9,0-6.5,1.2-7.9,3.5c-1.3,2.3-2,6.7-2,13.2v57.4h-16.7V85.9c0-3.1-0.2-5.7-0.5-7.8c-0.3-2.1-0.8-3.9-1.6-5.1
			c-0.7-1.3-1.7-2.2-2.9-2.8c-1.2-0.6-2.6-0.9-4.4-0.9c-3.7,0-6.4,1.3-7.9,3.8c-1.6,2.5-2.4,6.8-2.4,12.9v57.4H112V56z"/>
		<path d="M248.3,113.9h15c-1.2,20.5-9.6,30.8-25.3,30.8c-4.7,0-8.7-0.9-12-2.6c-3.3-1.7-6.1-4.4-8.3-8.1c-2.2-3.7-3.8-8.3-4.8-13.9
			c-1-5.6-1.6-12.3-1.6-20.1c0-15.4,2.2-26.8,6.5-34.2s10.9-11.1,19.9-11.1c17.5,0,26.2,15.4,26.2,46.2v2h-36.9
			c0,18.7,3.7,28,11.1,28C244.9,130.8,248.3,125.2,248.3,113.9z M247.5,91.2c-0.7-9.2-1.7-15.2-3.1-18c-1.5-3.2-3.8-4.8-7.1-4.8
			c-3.3,0-5.7,1.6-7.1,4.8c-1.4,2.9-2.4,8.9-3.1,18H247.5z"/>
		<path d="M279,13.1h17.5v115.4h28.7v14.8H279V13.1z"/>
		<path d="M340.4,18.9c2.9,0,5.5,1.1,7.6,3.2c2.1,2.1,3.2,4.7,3.2,7.7c0,3-1.1,5.6-3.2,7.8c-2.1,2.1-4.7,3.2-7.8,3.2
			s-5.6-1.1-7.8-3.2c-2.1-2.1-3.1-4.7-3.1-7.8c0-2.9,1.1-5.5,3.2-7.6C334.9,20,337.5,18.9,340.4,18.9z M332.8,56H349v87.3h-16.2V56z
			"/>
		<path d="M398.6,56h16.2v90.1c0,10.8-1.1,18.3-3.2,22.4c-3.9,7.6-11.8,11.5-23.7,11.5c-7.8,0-13.9-2.2-18.4-6.7
			c-4.5-4.5-6.7-10.5-6.7-18.1l0.1-2.7h15.6c0,9.3,3.5,13.9,10.4,13.9c3.8,0,6.3-1.2,7.7-3.5c1.4-2.2,2.1-6.7,2.1-13.4v-16.8
			c-3.4,8-8.7,12-15.8,12c-7.3,0-12.7-3.5-16.2-10.6c-3.5-7.1-5.2-18.2-5.2-33.2c0-16,1.7-27.7,5-35.3c3.3-7.3,8.7-10.9,16.3-10.9
			c3.6,0,6.5,0.9,8.8,2.6c2.2,1.7,4.6,4.8,7.1,9.3V56z M398.8,100.4c0-20.9-3.6-31.3-10.8-31.3c-3.4,0-5.9,2.3-7.5,7
			c-1.6,4.7-2.4,12.2-2.4,22.6c0,11,0.8,19,2.4,24.2c1.7,4.8,4.5,7.2,8.4,7.2c3.7,0,6.3-2.1,7.7-6.4
			C398.1,119.7,398.8,112,398.8,100.4z"/>
		<path d="M430,0h16.1v66c4.6-7.6,10.6-11.5,17.9-11.5c7.1,0,12.1,2.8,15.2,8.3c1.7,3.1,2.5,9.2,2.5,18.3v62.1h-16.1l-0.1-58.4
			c0-5.9-0.7-10.1-2.1-12.6c-1.4-2.5-3.8-3.7-7.3-3.7c-1.9,0-3.4,0.3-4.7,1c-1.3,0.6-2.3,1.7-3.1,3.1c-0.8,1.4-1.4,3.3-1.7,5.6
			c-0.4,2.3-0.5,5.1-0.5,8.5v56.4H430V0z"/>
		<path d="M500,31.5h16.1V56h8.8v12.8h-8.8v74.5H500V68.8h-8.9V56h8.9V31.5z"/>
	</g>
	<g>
		<path class="st0" d="M112,158.1h15.7v5h-9.8v13.8h8.9v5h-8.9v19.9H112V158.1z"/>
		<path class="st0" d="M154.5,181c0,7.7-0.9,13.2-2.6,16.4c-1.7,3.2-4.6,4.9-8.6,4.9c-4.2,0-7.2-1.7-9-5.2
			c-1.7-3.4-2.6-9.5-2.6-18.2c0-7.8,0.8-13.3,2.5-16.5c1.7-3.2,4.6-4.9,8.7-4.9c3.7,0,6.4,1.3,8.1,3.8c1.2,1.7,2,4.1,2.5,7.1
			C154.2,171.4,154.5,175.5,154.5,181z M148.3,181.7c0-7.6-0.3-12.6-1-15c-0.7-2.5-2.1-3.7-4.2-3.7s-3.5,1.1-4.2,3.4
			c-0.7,2.3-1,6.9-1,13.8c0,6.4,0.4,10.8,1.1,13.3c0.7,2.3,2.1,3.5,4.1,3.5c2,0,3.3-1.1,4.1-3.3C148,191.5,148.3,187.5,148.3,181.7z
			"/>
		<path class="st0" d="M161.1,158.1h5.8V189c0,3.1,0.3,5.2,0.8,6.3c0.6,1,1.7,1.6,3.4,1.6c1.7,0,2.8-0.5,3.4-1.4
			c0.6-0.9,0.8-2.8,0.8-5.6v-31.7h5.8v31.7c0,4.7-0.7,8-2.2,9.6c-1.7,1.9-4.4,2.9-7.9,2.9c-3.9,0-6.7-1.2-8.3-3.7
			c-1.1-1.7-1.7-4.9-1.7-9.7V158.1z"/>
		<path class="st0" d="M188.8,158.1h5.5l5.8,17.4c1.7,4.9,3.2,10.2,4.5,15.7c-0.5-3.4-0.8-6.4-1-9.2c-0.2-2.7-0.3-5.3-0.3-7.7v-16.3
			h5.9v43.6h-5.5l-6.6-19.6c-0.6-1.8-1.2-3.7-1.7-5.6c-0.5-1.9-1-3.9-1.5-6c0-0.3-0.1-0.6-0.2-1c-0.1-0.4-0.2-0.8-0.3-1.3
			c0.1,0.5,0.1,0.9,0.1,1.3c0,0.3,0.1,0.6,0.1,0.9l0.3,4.4l0.3,5.4c0,0.3,0,0.7,0,1.1c0,0.4,0,0.9,0,1.5l0.3,19h-5.8V158.1z"/>
		<path class="st0" d="M216.8,158.1h7.2c2.2,0,4.1,0.2,5.6,0.7c1.4,0.5,2.6,1.3,3.7,2.5c1.6,1.8,2.8,4.2,3.5,7.1
			c0.7,2.8,1,6.8,1,12.1c0,4.8-0.4,8.7-1.2,11.8c-0.8,2.9-2,5.1-3.7,6.6c-2.1,1.9-5.9,2.9-11.4,2.9h-4.7V158.1z M222.7,196.6
			c3.6,0,6-1.1,7.2-3.2c1.2-2.2,1.9-6.4,1.9-12.6c0-6.7-0.6-11.3-1.8-13.9c-1.2-2.5-3.4-3.8-6.5-3.8h-0.7V196.6z"/>
		<path class="st0" d="M250.8,158.1h4.6l9.4,43.6h-5.8l-1.6-8.5h-8.6l-1.7,8.5h-5.7L250.8,158.1z M256.4,188.7l-1.3-7
			c-0.9-4.7-1.6-9.8-2.1-15.1c-0.3,2.6-0.6,5.3-1,8c-0.4,2.7-0.9,5.5-1.5,8.5l-1.1,5.6H256.4z"/>
		<path class="st0" d="M263.6,158.1h19.1v5.1h-6.6v38.5h-5.8v-38.5h-6.8V158.1z"/>
		<path class="st0" d="M286.7,158.1h5.9v43.6h-5.9V158.1z"/>
		<path class="st0" d="M321.9,181c0,7.7-0.9,13.2-2.6,16.4c-1.7,3.2-4.6,4.9-8.6,4.9c-4.2,0-7.2-1.7-9-5.2
			c-1.7-3.4-2.6-9.5-2.6-18.2c0-7.8,0.8-13.3,2.5-16.5c1.7-3.2,4.6-4.9,8.7-4.9c3.7,0,6.4,1.3,8.1,3.8c1.2,1.7,2,4.1,2.5,7.1
			C321.6,171.4,321.9,175.5,321.9,181z M315.7,181.7c0-7.6-0.3-12.6-1-15c-0.7-2.5-2.1-3.7-4.2-3.7c-2.1,0-3.5,1.1-4.2,3.4
			c-0.7,2.3-1,6.9-1,13.8c0,6.4,0.4,10.8,1.1,13.3c0.7,2.3,2.1,3.5,4.1,3.5c2,0,3.3-1.1,4.1-3.3
			C315.3,191.5,315.7,187.5,315.7,181.7z"/>
		<path class="st0" d="M328.7,158.1h5.5l5.8,17.4c1.7,4.9,3.2,10.2,4.5,15.7c-0.5-3.4-0.8-6.4-1-9.2c-0.2-2.7-0.3-5.3-0.3-7.7v-16.3
			h5.9v43.6h-5.5l-6.6-19.6c-0.6-1.8-1.2-3.7-1.7-5.6c-0.5-1.9-1-3.9-1.5-6c0-0.3-0.1-0.6-0.2-1s-0.2-0.8-0.3-1.3
			c0.1,0.5,0.1,0.9,0.1,1.3c0,0.3,0.1,0.6,0.1,0.9l0.3,4.4l0.3,5.4c0,0.3,0,0.7,0,1.1c0,0.4,0,0.9,0,1.5l0.3,19h-5.8V158.1z"/>
	</g>
	<circle class="st0" cx="340.2" cy="29.7" r="11.5"/>
</g>
</svg>
