<svg width="171" height="74" xmlns="http://www.w3.org/2000/svg" xmlns:xlink="http://www.w3.org/1999/xlink"><defs><path id="a" d="M.27.727h76.933v64.3H.269z"/></defs><g fill="none" fill-rule="evenodd"><path d="M0 64.735V37.088c0-.27.135-.407.407-.407H2.48c.271 0 .407.136.407.407v25.37c0 .108.054.163.163.163h16.546c.27 0 .407.136.407.406v1.708c0 .272-.137.407-.407.407H.407c-.272 0-.407-.135-.407-.407" fill="#FFF"/><path d="M13.6 73.15a.5.5 0 0 1-.08-.284v-1.667c0-.27.067-.406.203-.406h.203c.84 0 1.498-.15 1.973-.447.474-.299.86-.827 1.159-1.586.298-.759.596-1.925.895-3.496.027-.055.034-.102.02-.143a.315.315 0 0 1-.02-.102l-5.166-20.002-.041-.123c0-.217.135-.325.407-.325h2.197c.27 0 .42.122.447.366l3.58 15.978c.026.082.054.122.08.122.028 0 .055-.04.082-.122l3.54-15.978c.054-.244.202-.366.447-.366l2.278.04c.135 0 .237.041.305.123.067.08.075.189.02.324l-5.654 21.875c-.488 1.815-.97 3.157-1.444 4.024-.474.868-1.092 1.47-1.851 1.81-.76.339-1.83.508-3.214.508h-.203c-.055 0-.108-.04-.162-.122m37.382-22.117v13.7c0 .272-.137.408-.407.408h-2.034c-.271 0-.406-.136-.406-.407V51.277c0-1.382-.293-2.472-.875-3.273-.584-.798-1.35-1.2-2.298-1.2-1.03 0-1.845.394-2.441 1.18-.597.786-.895 1.857-.895 3.212v13.539c0 .271-.137.407-.407.407h-2.075c-.27 0-.406-.136-.406-.407V51.277c0-1.382-.292-2.472-.875-3.273-.583-.798-1.335-1.2-2.257-1.2-1.031 0-1.85.394-2.46 1.18-.611.786-.916 1.857-.916 3.212v13.539c0 .271-.136.407-.407.407H29.79c-.272 0-.407-.136-.407-.407v-19.76c0-.27.135-.405.407-.405h2.034c.27 0 .407.135.407.405v1.261c0 .054.02.089.06.101.042.015.088-.006.143-.061.515-.676 1.125-1.179 1.83-1.505a5.285 5.285 0 0 1 2.238-.486c1.03 0 1.925.25 2.684.751.76.502 1.343 1.213 1.75 2.134.026.055.067.083.121.083.055 0 .095-.041.122-.123.489-.976 1.153-1.693 1.994-2.155.84-.46 1.734-.69 2.685-.69 1.626 0 2.887.596 3.782 1.788.895 1.193 1.343 2.847 1.343 4.96zm8.114-3.192c-.637.718-.956 1.66-.956 2.826v2.723c0 .109.054.163.162.163h6.672c.107 0 .162-.054.162-.163v-2.723c0-1.166-.325-2.108-.976-2.826s-1.505-1.078-2.563-1.078c-1.03 0-1.865.36-2.501 1.078m8.48 8.11h-9.274c-.108 0-.162.055-.162.164v2.968c0 1.138.319 2.067.956 2.784.636.72 1.47 1.078 2.501 1.078.868 0 1.607-.264 2.218-.793.61-.528 1.01-1.212 1.2-2.052.08-.245.23-.367.446-.367l2.034.082c.109 0 .204.04.285.12.082.082.109.192.082.327-.218 1.6-.875 2.866-1.973 3.8-1.098.937-2.53 1.403-4.292 1.403-1.925 0-3.464-.568-4.616-1.706-1.154-1.14-1.729-2.643-1.729-4.514v-8.782c0-1.843.575-3.34 1.729-4.492 1.152-1.152 2.69-1.729 4.616-1.729 1.953 0 3.505.577 4.658 1.729 1.152 1.152 1.729 2.649 1.729 4.492v5.082c0 .27-.136.406-.407.406" fill="#FFF"/><g transform="translate(93)"><mask id="b" fill="#fff"><use xlink:href="#a"/></mask><path d="M58.632 65.027H47.2a1.807 1.807 0 1 1 0-3.614h9.345l16.483-28.536L56.544 4.341h-32.96L5.792 32.877a1.809 1.809 0 0 1-2.466.674 1.806 1.806 0 0 1-.675-2.464L21.484.727h37.148l18.571 32.15-18.57 32.15z" fill="#F98C29" mask="url(#b)"/></g><path d="M145.618 56.09h-4.292a1.31 1.31 0 1 1 0-2.62h2.778l11.954-20.697-11.954-20.696h-23.24l-12.807 20.696a1.312 1.312 0 0 1-2.277-1.298l13.56-22.02h26.278l13.469 23.318-13.469 23.318z" fill="#1F9AD7" stroke="#1F9AD7"/><path d="M72.501 64.59V36.71c0-.273.137-.41.41-.41h3.116c.219 0 .369.11.451.328l4.182 9.963c.027.055.068.082.123.082.055 0 .096-.027.123-.082l4.264-9.963c.082-.219.232-.328.451-.328h3.116c.273 0 .41.137.41.41v27.88c0 .273-.137.41-.41.41h-3.116c-.273 0-.41-.137-.41-.41V46.017c0-.082-.02-.123-.061-.123-.042 0-.09.027-.144.082l-3.813 8.118c-.082.191-.191.287-.328.287-.191 0-.328-.096-.41-.287l-3.813-8.159c-.055-.055-.102-.082-.143-.082-.042 0-.062.041-.062.123V64.59c0 .273-.137.41-.41.41h-3.116c-.273 0-.41-.137-.41-.41zm20.789 0V36.71c0-.273.137-.41.41-.41h3.116c.273 0 .41.137.41.41v27.88c0 .273-.137.41-.41.41H93.7c-.273 0-.41-.137-.41-.41zm8.161 0V36.71c0-.273.137-.41.41-.41h3.157c.219 0 .369.11.451.328l7.298 18.081c.027.082.068.116.123.102.055-.013.082-.061.082-.143V36.71c0-.273.137-.41.41-.41h3.075c.273 0 .41.137.41.41v27.88c0 .273-.137.41-.41.41h-3.198c-.219 0-.369-.11-.451-.328l-7.298-18.081c-.027-.082-.068-.123-.123-.123-.055 0-.082.041-.082.123l.041 17.999c0 .273-.137.41-.41.41h-3.075c-.273 0-.41-.137-.41-.41zm19.6 0V36.71c0-.273.137-.41.41-.41h6.724c2.269 0 4.073.697 5.412 2.091 1.34 1.394 2.009 3.28 2.009 5.658v13.202c0 2.378-.67 4.264-2.009 5.658-1.34 1.394-3.143 2.091-5.412 2.091h-6.724c-.273 0-.41-.137-.41-.41zm4.1-2.993l2.993-.041c1.039 0 1.872-.403 2.501-1.21.629-.806.957-1.906.984-3.3V44.254c0-1.394-.314-2.501-.943-3.321-.629-.82-1.476-1.23-2.542-1.23h-2.993c-.11 0-.164.055-.164.164v21.566c0 .11.055.164.164.164z" fill="#FFF"/></g></svg>