<svg id="Layer_1" data-name="Layer 1" xmlns="http://www.w3.org/2000/svg" viewBox="0 0 595.28 169"><defs><style>.cls-1{fill:#005163;}.cls-2{fill:#00b08a;}.cls-3{fill:#f4904d;}.cls-4{fill:#0f7f90;}.cls-5{fill:#b0c9cb;}.cls-6{fill:#facccd;}.cls-7{fill:#f38b97;}</style></defs><title>lymemind-logo-RGB</title><path class="cls-1" d="M391.83,69.63l8.77,13.5,8.77-13.5h2.94V84.54h-1.94V71.77l-8.3,12.77h-2.95l-8.29-12.77V84.54h-1.95V69.63Z"/><path class="cls-1" d="M419.77,69.63V84.54h-1.95V69.63Z"/><path class="cls-1" d="M428.26,69.63l13,13.07V69.63h1.94V84.54h-2.94l-13-13.06V84.54h-1.94V69.63Z"/><path class="cls-1" d="M455.59,69.63c7.58,0,11.6,2.59,11.6,7.46s-4,7.45-11.65,7.45h-7.17V69.63Zm9.66,7.46c0-3.72-3.37-5.69-9.71-5.69h-5.22V82.78h5.22C461.88,82.78,465.25,80.8,465.25,77.09Z"/><polygon class="cls-1" points="244.5 94.77 244.5 94.77 244.5 69.6 240.78 69.6 240.78 98.15 244.5 98.15 266.25 98.15 266.25 94.77 244.5 94.77"/><polygon class="cls-1" points="377.89 72.98 377.89 69.6 352.5 69.6 352.5 98.15 377.89 98.15 377.89 94.77 356.22 94.77 356.22 85.29 376.01 85.29 376.01 81.91 356.22 81.91 356.22 72.98 377.89 72.98"/><polygon class="cls-1" points="289.98 69.6 276.81 85.3 263.53 69.6 258.69 69.6 274.55 88 274.55 98.15 278.56 98.15 278.56 88.85 294.43 69.6 289.98 69.6"/><path class="cls-1" d="M304.54,69.66,321.33,95.5l16.79-25.84h5.63V98.21H340V73.76L324.15,98.21h-5.64L302.63,73.76V98.21h-3.72V69.66Z"/><path class="cls-2" d="M163.63,97.81h0l-8.11-21.33a9.94,9.94,0,0,0-9.29-6.42h0l8.1,21.34A10,10,0,0,0,163.63,97.81Z"/><path class="cls-3" d="M165.83,97.81h0l8.1-21.33a10,10,0,0,1,9.3-6.42h0L175.12,91.4A9.93,9.93,0,0,1,165.83,97.81Z"/><path class="cls-4" d="M137.81,99.4h0A6.23,6.23,0,0,0,144,93.17V70.06h0a6.22,6.22,0,0,0-6.22,6.23Z"/><path class="cls-5" d="M128.09,70.06V93.17a6.22,6.22,0,0,0,6.22,6.23V76.29a6.23,6.23,0,0,0-6.22-6.23"/><path class="cls-6" d="M201.47,70.06a6.23,6.23,0,0,0-6.22,6.23V99.4a6.22,6.22,0,0,0,6.22-6.23V70.06"/><path class="cls-7" d="M185.53,70.06h0a6.22,6.22,0,0,1,6.22,6.23V99.4h0a6.23,6.23,0,0,1-6.22-6.23Z"/></svg>