<?xml version="1.0" encoding="utf-8"?>
<svg version="1.1" id="Layer_1" xmlns="http://www.w3.org/2000/svg" xmlns:xlink="http://www.w3.org/1999/xlink" x="0px" y="0px"
	 viewBox="0 0 80.2 39.3" style="enable-background:new 0 0 80.2 39.3;" xml:space="preserve">
<style type="text/css">
	.st0{fill:#052049;}
</style>
<path class="st0" d="M80.1,17.1v-4.8H61.8V30c-0.1-2.1-0.9-3.7-2.3-4.8c-1-0.8-2.5-1.4-4.5-1.9l-4.5-1.1c-1.8-0.4-2.9-0.8-3.4-1.1
	c-0.5-0.2-0.9-0.6-1-1.1l0,0l0,0l0,0c-0.2-0.3-0.2-0.6-0.2-1c0-0.8,0.3-1.5,0.9-2l0,0l0,0l0,0l0,0c0.2-0.1,0.2-0.2,0.4-0.3
	c0.9-0.5,2-0.9,3.4-0.9c1.3,0,2.3,0.2,3.2,0.6c1.3,0.6,2,1.8,2.1,3.3H61c-0.1-2.7-1.1-4.8-3-6.3s-4.3-2.2-7.1-2.2
	c-3.3,0-5.8,0.8-7.6,2.3c-1,0.9-1.8,2-2.2,3.3l0,0c-0.1,0.2-0.2,0.5-0.2,0.9l0,0c-0.6,3-2.6,5-5.8,5c-5.1,0-7.1-4.4-7.1-8.7
	c0-4.6,1.9-9,7.1-9c2.9,0,5.3,1.9,5.7,4.6h5.5c-0.7-6-5.5-9.3-11.2-9.3c-7.7,0-12.4,5.5-12.8,12.7V1h-5.8v16.2
	c0,3.9-1.3,5.7-5.4,5.7c-4.7,0-5.4-2.8-5.4-5.7V1H0.1v16.2c0,7.1,4.1,10.5,11.1,10.5c7,0,11.1-3.4,11.1-10.5v-2
	c0.4,7,5.1,12.5,12.8,12.5c3.2,0,5.8-1,7.9-2.8c0.2,0.1,0.2,0.2,0.4,0.3c1,0.7,3,1.4,5.7,2l2.8,0.6c1.6,0.4,2.8,0.8,3.6,1.2
	c0.8,0.5,1.2,1.2,1.2,2c0,1.5-0.8,2.5-2.3,3c-0.8,0.3-1.9,0.4-3.2,0.4c-2.2,0-3.7-0.5-4.6-1.6c-0.5-0.6-0.9-1.5-1-2.6h-5.1
	c0,2.7,1,4.8,3,6.4c1.9,1.6,4.7,2.3,8,2.3c3.3,0,5.9-0.8,7.8-2.3c1.7-1.4,2.6-3.2,2.7-5.4v7.3h5.8v-11h10.9v-4.4H67.6v-6L80.1,17.1
	L80.1,17.1z"/>
</svg>
